<svg fill="none" xmlns="http://www.w3.org/2000/svg">
	<path
		d="M24.664 11.59a3.09 3.09 0 1 1-6.182 0 3.09 3.09 0 0 1 6.182 0zM15 20.927c0-2.345 1.9-4.245 4.245-4.245h4.51c2.345 0 4.245 1.9 4.245 4.245a.573.573 0 0 1-.573.573H15.573a.573.573 0 0 1-.573-.573zM15.552 10.454a4.455 4.455 0 1 1-8.91 0 4.455 4.455 0 0 1 8.91 0z"
		stroke-width="2"/>
	<path
		d="M2 22.902a5.993 5.993 0 0 1 5.993-5.993h6.014A5.993 5.993 0 0 1 20 22.902c0 .606-.491 1.098-1.098 1.098H3.098A1.098 1.098 0 0 1 2 22.902z"
		stroke-width="2"/>
</svg>
