<svg fill="none" xmlns="http://www.w3.org/2000/svg">
    <path d="m5.369 22.72.349-.42c1.834-2.2.542-5.559-2.294-5.964l-.303-.043a1.306 1.306 0 0 1 0-2.586l.354-.05c2.738-.392 3.855-3.741 1.899-5.697-.53-.53-.53-1.39 0-1.92l.333-.333.432-.432a1.025 1.025 0 0 1 1.512.069C9.462 7.517 13 6.236 13 3.407v-.28C13 2.503 13.504 2 14.127 2h1.746C16.497 2 17 2.504 17 3.127v.28c0 2.83 3.538 4.11 5.349 1.937a1.025 1.025 0 0 1 1.512-.069l.432.432.333.333c.53.53.53 1.39 0 1.92-1.956 1.956-.84 5.305 1.9 5.697l.353.05a1.306 1.306 0 0 1 0 2.586l-.354.05c-2.738.392-3.855 3.741-1.899 5.697.53.53.53 1.39 0 1.92l-.333.333-.536.535c-.411.412-1.1.415-1.525-.01C20.337 22.922 17 24.196 17 26.95c0 .58-.47 1.05-1.05 1.05h-1.9c-.58 0-1.05-.47-1.05-1.05 0-2.718-3.286-4.079-5.207-2.157l-.179.178a1.155 1.155 0 0 1-1.51.108L5.6 24.7a1.375 1.375 0 0 1-.231-1.98z"
          fill="#fff" stroke="#000" stroke-linejoin="round" stroke-width="2"/>
    <circle cx="15" cy="15" fill="#fff" r="5" stroke="#000" stroke-width="2"/>
</svg>